<svg version="1.1" id="Layer_1" xmlns="http://www.w3.org/2000/svg" xmlns:xlink="http://www.w3.org/1999/xlink" x="0px" y="0px"
	 width="100%" viewBox="0 0 227 222" enable-background="new 0 0 227 222" xml:space="preserve">
<path fill="#B6B6B6" opacity="1.000000" stroke="none" 
	d="
M98.000000,223.000000 
	C97.555557,223.000000 97.111107,223.000000 96.030228,222.728027 
	C94.542679,218.084061 90.790291,218.782516 87.864746,218.115082 
	C87.913071,218.109818 87.882095,218.201965 87.989204,217.855835 
	C86.386986,215.368271 84.677658,213.226837 83.035973,210.731247 
	C84.620667,209.256348 86.238403,208.247635 87.634743,206.992615 
	C91.001099,203.966995 94.254097,200.815582 97.570969,197.734467 
	C101.605469,193.986710 105.817451,190.414032 109.658264,186.478317 
	C113.378258,182.666382 116.590424,178.361832 120.268517,174.505295 
	C125.163979,169.372314 130.281097,164.449966 135.328827,159.463257 
	C138.551956,156.279099 141.760635,153.076096 145.086380,150.001144 
	C149.128418,146.263931 153.394394,142.764847 157.367416,138.958115 
	C162.248657,134.281189 166.936584,129.401993 171.690414,124.592773 
	C175.111450,121.131882 178.562317,117.697578 181.892731,114.150795 
	C185.537918,110.268799 189.046066,106.258308 192.667160,102.353142 
	C192.903976,102.097755 193.594620,102.263153 194.359970,102.214752 
	C194.733276,103.634026 195.096069,105.013260 195.401794,106.175568 
	C196.699402,106.503990 197.869568,106.800156 199.015198,107.343109 
	C198.990677,107.589890 198.850906,108.065788 198.546173,108.218246 
	C197.777008,109.874016 196.815231,111.417648 196.933258,112.873749 
	C197.476181,119.571175 198.248123,126.253586 199.115646,132.918243 
	C199.296494,134.307587 200.230499,135.598892 200.919220,137.381241 
	C200.628708,150.063705 205.280884,160.425262 212.553864,169.962524 
	C213.501419,171.205063 213.575424,174.820236 212.699783,175.448273 
	C209.098541,178.031204 204.974213,179.884842 200.687302,182.071533 
	C199.573944,183.183563 198.815552,184.230743 198.032776,185.491257 
	C197.846970,185.992065 197.603531,186.109528 196.859161,186.011169 
	C196.025177,188.176849 195.433746,190.372955 195.239471,192.603653 
	C194.994644,195.414627 195.074188,198.253845 194.892807,201.411896 
	C191.541321,203.833191 188.310822,205.923508 184.662552,207.970810 
	C176.726379,207.301056 169.215561,206.324066 161.687103,206.161194 
	C155.930786,206.036667 150.094299,211.643066 148.931030,217.535812 
	C147.545471,219.566925 146.272736,221.283463 145.000000,223.000000 
	C142.299042,223.000000 139.598083,223.000000 136.420120,222.615051 
	C131.942078,219.441833 127.941032,216.653534 123.795837,213.524536 
	C118.976448,211.005142 116.434006,211.810745 114.098511,216.157852 
	C114.083946,216.109436 114.184349,216.121384 113.812416,215.995087 
	C112.657440,216.647186 111.874397,217.425598 111.078735,218.147751 
	C111.066116,218.091507 111.181107,218.099747 110.799660,218.014771 
	C108.978394,219.021286 107.538567,220.112762 106.084045,221.150604 
	C106.069351,221.096985 106.180428,221.102509 105.740387,220.996429 
	C102.866890,221.593552 100.433441,222.296768 98.000000,223.000000 
z"/>
<path fill="#000000" opacity="1.000000" stroke="none" 
	d="
M1.000001,84.000000 
	C1.000000,56.402664 1.000000,28.805330 1.000000,1.000000 
	C31.353910,1.000000 61.708298,1.000000 92.829506,1.341963 
	C92.777008,2.121218 91.989777,2.638808 91.132614,2.981404 
	C88.012756,4.228345 84.563698,4.944571 81.803123,6.732344 
	C77.064842,9.800897 72.753624,13.528271 68.258316,16.972795 
	C58.162861,24.708433 51.564625,34.783569 48.078995,47.208763 
	C47.999416,47.420910 47.955482,47.871937 47.699417,47.961197 
	C47.348057,48.360069 47.252758,48.669682 47.078114,49.197006 
	C46.998768,49.414722 46.957382,49.876316 46.700394,49.963314 
	C46.347958,50.360008 46.252510,50.669704 46.078876,51.288418 
	C45.985569,52.022133 45.970448,52.446831 45.699371,52.961021 
	C45.348278,53.360085 45.253132,53.669647 45.079758,54.288788 
	C44.985909,55.023758 44.970287,55.449154 44.739620,55.937492 
	C44.402992,56.375443 44.281406,56.750450 44.178970,57.098961 
	C44.198112,57.072456 44.148365,57.109039 44.083782,57.281403 
	C44.084435,57.687035 44.139408,57.922699 43.984230,58.468292 
	C43.240356,60.848587 42.696365,62.921341 42.072205,65.204514 
	C41.992031,65.414940 41.953678,65.863655 41.699020,65.956207 
	C41.347073,66.358215 41.249783,66.667686 41.073357,67.343750 
	C40.951431,68.457802 40.908646,69.205254 40.521690,70.134285 
	C38.949432,75.387810 37.721344,80.459755 36.728321,84.560875 
	C31.986986,81.536560 27.247681,76.999985 21.658789,75.361702 
	C15.718525,73.620399 8.753236,74.002350 4.544146,81.100693 
	C3.142532,82.163506 2.071267,83.081757 1.000001,84.000000 
z"/>
<path fill="#000000" opacity="1.000000" stroke="none" 
	d="
M93.000000,223.000000 
	C62.395561,223.000000 31.791122,223.000000 1.000000,223.000000 
	C1.000000,181.979294 1.000000,140.958313 1.256972,99.192352 
	C2.311743,98.998116 3.109542,99.548836 3.916759,100.073273 
	C3.926177,100.046974 3.874993,100.069298 3.967882,100.318466 
	C4.366384,100.660492 4.671996,100.753342 5.328451,101.003174 
	C9.892582,104.602402 13.614985,102.881409 17.042572,99.819611 
	C17.810350,100.751320 18.382334,101.445427 19.060858,102.431595 
	C20.098515,103.524284 21.029631,104.324928 22.070232,105.420967 
	C23.419109,106.819191 24.658499,107.922028 26.038872,109.374527 
	C28.768913,110.537178 31.357969,111.350159 33.951355,112.510757 
	C33.927856,113.552521 33.900028,114.246674 33.525848,115.126289 
	C32.286652,119.887352 31.475990,124.480949 30.478140,129.033524 
	C29.454580,133.703400 28.247965,138.333160 27.039303,143.332230 
	C26.957834,144.406433 26.958529,145.128876 26.706778,145.946106 
	C26.349131,146.348160 26.243925,146.655411 26.056496,147.331360 
	C24.282354,151.437073 22.590437,155.174088 20.924072,158.923523 
	C20.949623,158.935944 20.923838,158.885590 20.608627,159.033356 
	C19.822325,160.439987 19.351234,161.698853 18.557106,163.110840 
	C16.553850,166.325363 14.873631,169.386749 12.930080,172.667587 
	C7.926825,180.950806 7.804959,183.301270 11.965096,188.307526 
	C12.586194,189.009689 13.122581,189.458145 13.812017,190.169525 
	C14.302630,190.568237 14.640192,190.703995 15.392838,190.910965 
	C21.219679,189.025970 26.631437,187.069778 32.471630,185.064056 
	C34.844093,185.014557 36.788124,185.014557 38.571251,185.014557 
	C39.756275,187.572403 40.798840,189.822754 41.891739,192.410828 
	C42.239876,193.518692 42.537674,194.288834 42.898941,195.456116 
	C43.371479,197.584396 43.780544,199.315536 44.128906,201.408432 
	C46.734684,206.575760 49.419186,207.652313 58.444122,202.073181 
	C58.649788,202.086319 59.024010,201.913574 59.404114,201.956909 
	C64.024544,199.709305 68.273003,197.535889 73.040550,201.405121 
	C74.737144,203.540588 76.311417,205.361404 77.893112,207.132553 
	C77.900543,207.082886 77.803093,207.107193 77.890366,207.453323 
	C81.279121,211.266968 84.580605,214.734467 87.882095,218.201965 
	C87.882095,218.201965 87.913071,218.109818 88.039589,218.421555 
	C89.940857,219.799194 91.715607,220.865082 93.566559,222.289413 
	C93.428520,222.765244 93.214264,222.882614 93.000000,223.000000 
z"/>
<path fill="#000000" opacity="1.000000" stroke="none" 
	d="
M145.468658,223.000000 
	C146.272736,221.283463 147.545471,219.566925 149.233490,217.375778 
	C154.987076,209.223068 162.342331,206.488312 171.434967,208.012756 
	C172.708176,208.226212 173.986801,208.652634 175.252640,208.616837 
	C178.531586,208.524170 181.804810,208.228455 185.080307,208.013809 
	C188.310822,205.923508 191.541321,203.833191 195.297485,201.375000 
	C196.349167,198.287537 197.054947,195.586975 197.344879,192.842484 
	C197.580933,190.607925 197.319107,188.320770 197.278046,186.056946 
	C197.603531,186.109528 197.846970,185.992065 198.370590,185.367020 
	C199.502625,184.021881 200.272446,183.014297 201.042267,182.006699 
	C204.974213,179.884842 209.098541,178.031204 212.699783,175.448273 
	C213.575424,174.820236 213.501419,171.205063 212.553864,169.962524 
	C205.280884,160.425262 200.628708,150.063705 200.962311,136.960114 
	C200.596024,134.876923 200.081223,133.672012 200.014404,132.442734 
	C199.572845,124.320015 199.227570,116.192047 198.850906,108.065788 
	C198.850906,108.065788 198.990677,107.589890 199.357971,107.298195 
	C200.501801,106.048271 201.278320,105.090042 202.379150,104.007713 
	C203.839996,101.942772 204.976532,100.001945 206.427429,97.908882 
	C208.237213,95.623077 207.878708,91.375214 212.662613,93.108879 
	C216.004822,94.320076 219.561447,94.939575 223.286530,95.864792 
	C223.741348,95.616379 223.931931,95.326538 224.350586,95.019104 
	C224.578629,95.001511 225.015945,94.867332 225.284637,94.913269 
	C225.753677,94.668198 225.954041,94.377174 226.124039,94.071609 
	C226.093689,94.057068 226.123016,94.117699 226.390274,94.017807 
	C227.105026,93.611954 227.552505,93.305977 228.000000,93.000000 
	C228.000000,136.244156 228.000000,179.488312 228.000000,223.000000 
	C200.646347,223.000000 173.291840,223.000000 145.468658,223.000000 
z"/>
<path fill="#000000" opacity="1.000000" stroke="none" 
	d="
M144.000000,1.000001 
	C171.925568,1.000000 199.851120,1.000000 228.000000,1.000000 
	C228.000000,27.687145 228.000000,54.374916 227.669861,81.456284 
	C226.836227,80.894371 226.332748,79.938858 225.874954,78.716469 
	C225.627060,78.257462 225.333466,78.065331 225.018585,77.647766 
	C224.997284,77.422325 224.842468,76.996750 224.835602,76.658043 
	C223.498672,74.543892 222.168625,72.768448 220.916412,70.671875 
	C220.375229,69.551224 219.756226,68.751701 219.072922,67.625916 
	C218.363525,66.494492 217.718414,65.689346 217.049896,64.928574 
	C217.026505,64.972946 217.115326,64.926292 216.955933,64.593239 
	C208.452530,59.603580 204.394180,59.566200 199.609436,64.108810 
	C199.624878,64.115875 199.611664,64.093826 199.293304,64.308449 
	C197.058426,67.137550 195.141891,69.752022 193.183456,72.423660 
	C187.872040,55.680695 183.316711,38.277451 171.315948,23.913136 
	C169.093063,21.378452 167.075760,19.094931 164.978119,16.542973 
	C164.320923,15.833601 163.744064,15.392666 163.015686,14.636179 
	C160.933167,13.187339 159.002167,12.054050 156.960403,10.614275 
	C155.926697,9.844561 155.003738,9.381333 153.942627,8.587345 
	C152.990158,7.791667 152.109665,7.412700 151.373535,6.846179 
	C148.888062,4.933351 146.453827,2.953948 144.000000,1.000001 
z"/>
<path fill="#F0F0F0" opacity="1.000000" stroke="none" 
	d="
M114.000000,1.000000 
	C119.022095,1.000000 124.044189,1.000000 129.528809,1.257436 
	C129.993607,1.686505 129.995880,1.858139 129.991272,2.422111 
	C129.788223,5.839108 128.304489,7.166899 125.155075,7.091844 
	C123.713867,7.057499 121.912682,7.645846 120.862732,8.599287 
	C118.451515,10.788861 116.519356,13.496622 114.184532,15.781251 
	C101.324669,28.364586 90.206360,42.838974 74.561783,52.678493 
	C75.285828,53.671001 76.149368,54.854717 76.887596,56.360352 
	C75.523125,59.455273 74.283958,62.228275 72.667297,64.995712 
	C71.198700,64.374199 70.169930,63.495586 68.998611,63.217541 
	C67.869125,62.949429 66.075531,62.809723 65.460220,63.456718 
	C59.132477,70.110336 53.164070,77.114632 46.673565,83.598839 
	C44.828888,85.441719 41.610596,85.909653 39.018013,86.620392 
	C40.013885,80.821770 41.013977,75.410881 42.399124,69.993637 
	C46.193237,69.235245 49.774288,68.827065 50.239239,64.136711 
	C50.325306,63.268456 51.657749,62.471413 52.501476,61.741539 
	C54.242779,60.235203 56.181751,58.934258 57.793999,57.305851 
	C64.890762,50.137970 71.901466,42.884861 78.940720,35.660072 
	C82.902176,31.594210 86.721458,27.377848 90.849861,23.489487 
	C96.767059,17.916328 102.973198,12.650580 108.916344,7.103961 
	C110.836937,5.311511 112.317924,3.048019 114.000000,1.000000 
z"/>
<path fill="#F5F5F5" opacity="1.000000" stroke="none" 
	d="
M113.533882,1.000000 
	C112.317924,3.048019 110.836937,5.311511 108.916344,7.103961 
	C102.973198,12.650580 96.767059,17.916328 90.849861,23.489487 
	C86.721458,27.377848 82.902176,31.594210 78.940720,35.660072 
	C71.901466,42.884861 64.890762,50.137970 57.793999,57.305851 
	C56.181751,58.934258 54.242779,60.235203 52.501476,61.741539 
	C51.657749,62.471413 50.325306,63.268456 50.239239,64.136711 
	C49.774288,68.827065 46.193237,69.235245 42.111862,69.984772 
	C41.248322,69.972404 41.057091,69.962555 40.865860,69.952713 
	C40.908646,69.205254 40.951431,68.457802 41.269707,67.210281 
	C41.762749,66.467316 41.898914,66.185127 41.953678,65.863655 
	C41.953678,65.863655 41.992031,65.414940 42.460869,65.141762 
	C46.112419,63.149632 45.108253,60.647713 44.184116,58.160755 
	C44.139408,57.922699 44.084435,57.687035 44.511429,57.264832 
	C45.816246,56.935825 46.910069,57.084915 47.397667,56.610687 
	C51.971863,52.161957 56.460407,47.624371 60.936199,43.075558 
	C63.755512,40.210239 66.538307,37.307728 69.288177,34.375664 
	C73.043243,30.371811 76.671532,26.246136 80.501442,22.316208 
	C84.568352,18.143089 88.923889,14.247684 92.921661,10.012285 
	C94.885681,7.931520 96.326004,5.356439 98.248428,2.836785 
	C98.662354,2.112338 98.831177,1.556169 99.000000,0.999999 
	C103.689255,1.000000 108.378510,1.000000 113.533882,1.000000 
z"/>
<path fill="#D9D9D9" opacity="1.000000" stroke="none" 
	d="
M228.000000,92.551437 
	C227.552505,93.305977 227.105026,93.611954 226.343918,93.623291 
	C225.033768,92.502106 224.144424,91.163719 223.023926,90.929070 
	C213.044449,88.839233 203.024139,86.944412 192.975571,84.644592 
	C192.644806,83.176414 192.354324,82.055756 192.280624,80.938690 
	C192.497406,80.942291 192.931030,80.944565 193.286209,80.957336 
	C197.533401,80.795654 194.593674,78.333160 194.983490,76.987968 
	C194.990402,76.992470 194.981705,76.976364 195.344391,77.041832 
	C197.915649,80.905243 201.425980,80.892418 205.348404,81.147346 
	C212.928711,81.640007 220.452682,82.999710 228.000000,84.000000 
	C228.000000,86.700958 228.000000,89.401924 228.000000,92.551437 
z"/>
<path fill="#FDFDFD" opacity="1.000000" stroke="none" 
	d="
M98.571533,0.999999 
	C98.831177,1.556169 98.662354,2.112338 97.875534,2.876180 
	C93.900360,4.970962 90.740135,7.478781 87.146027,8.619160 
	C79.046410,11.189100 73.655090,16.576262 68.718201,23.162325 
	C65.845940,26.994053 61.518173,29.729916 57.873791,32.990692 
	C56.817757,33.935566 55.652843,34.855751 54.896130,36.020103 
	C52.557446,39.618610 50.391560,43.329414 48.158577,46.996616 
	C51.564625,34.783569 58.162861,24.708433 68.258316,16.972795 
	C72.753624,13.528271 77.064842,9.800897 81.803123,6.732344 
	C84.563698,4.944571 88.012756,4.228345 91.132614,2.981404 
	C91.989777,2.638808 92.777008,2.121218 93.298164,1.341963 
	C94.714355,1.000000 96.428719,1.000000 98.571533,0.999999 
z"/>
<path fill="#000000" opacity="1.000000" stroke="none" 
	d="
M123.939987,213.865250 
	C127.941032,216.653534 131.942078,219.441833 135.971558,222.615051 
	C125.645775,223.000000 115.291542,223.000000 104.376175,222.653564 
	C104.603493,221.905594 105.391960,221.504044 106.180428,221.102509 
	C106.180428,221.102509 106.069351,221.096985 106.423813,221.060303 
	C108.245888,220.049011 109.713501,219.074371 111.181107,218.099747 
	C111.181107,218.099747 111.066116,218.091507 111.395874,218.057877 
	C112.545204,217.389954 113.364777,216.755676 114.184349,216.121384 
	C114.184349,216.121384 114.083946,216.109436 114.474564,216.063324 
	C117.890114,215.299896 120.915047,214.582565 123.939987,213.865250 
z"/>
<path fill="#ECECEC" opacity="1.000000" stroke="none" 
	d="
M1.000000,94.000000 
	C1.000000,92.611000 1.000000,91.222008 1.347473,89.385101 
	C10.131939,86.288879 18.568933,83.640564 27.349026,81.029060 
	C29.464964,83.032593 31.237804,84.999313 32.759205,87.252243 
	C30.005651,88.032982 27.503538,88.527512 24.760963,88.758545 
	C18.682030,89.704391 12.832211,90.862473 7.011237,92.150864 
	C4.971014,92.602440 3.001696,93.374359 1.000000,94.000000 
z"/>
<path fill="#E3E3E2" opacity="1.000000" stroke="none" 
	d="
M228.000000,83.666672 
	C220.452682,82.999710 212.928711,81.640007 205.348404,81.147346 
	C201.425980,80.892418 197.915649,80.905243 195.467148,76.766418 
	C195.808197,75.611618 196.389175,74.797707 197.358856,74.036057 
	C199.081879,74.709084 200.386276,75.785179 201.755478,75.875175 
	C209.442505,76.380432 217.145157,76.648033 224.842468,76.996750 
	C224.842468,76.996750 224.997284,77.422325 225.089142,77.872177 
	C225.319427,78.618576 225.535507,78.839020 225.829254,78.983345 
	C226.332748,79.938858 226.836227,80.894371 227.669861,81.924942 
	C228.000000,82.444443 228.000000,82.888893 228.000000,83.666672 
z"/>
<path fill="#F5F5F5" opacity="1.000000" stroke="none" 
	d="
M27.005926,80.992256 
	C18.568933,83.640564 10.131939,86.288879 1.347473,88.968597 
	C1.000000,87.611107 1.000000,86.222221 1.000001,84.416664 
	C2.071267,83.081757 3.142532,82.163506 4.902119,81.141251 
	C7.677243,80.552116 9.932940,80.419510 11.819191,79.515785 
	C17.483938,76.801735 24.292366,77.323212 27.005926,80.992256 
z"/>
<path fill="#E4E4E4" opacity="1.000000" stroke="none" 
	d="
M1.000000,94.416664 
	C3.001696,93.374359 4.971014,92.602440 7.011237,92.150864 
	C12.832211,90.862473 18.682030,89.704391 24.714062,89.125084 
	C24.266850,90.454781 23.756168,91.500221 22.964252,91.798157 
	C17.701183,93.778275 12.346858,95.517426 7.097493,97.531181 
	C5.884230,97.996605 4.962972,99.223221 3.907343,100.099564 
	C3.109542,99.548836 2.311743,98.998116 1.256972,98.723694 
	C1.000000,97.611107 1.000000,96.222221 1.000000,94.416664 
z"/>
<path fill="#FDFDFD" opacity="1.000000" stroke="none" 
	d="
M129.998169,2.029772 
	C129.995880,1.858139 129.993607,1.686505 129.995667,1.257436 
	C134.356903,1.000000 138.713806,1.000000 143.535355,1.000001 
	C146.453827,2.953948 148.888062,4.933351 151.373535,6.846179 
	C152.109665,7.412700 152.990158,7.791667 153.914337,8.616549 
	C154.024170,8.976517 153.968491,9.035789 153.597183,9.030901 
	C151.150787,8.351706 149.075699,7.677396 146.649445,6.955750 
	C144.534500,6.267870 142.770721,5.627328 140.773895,4.694446 
	C137.026627,3.611327 133.512405,2.820550 129.998169,2.029772 
z"/>
<path fill="#F9F9F9" opacity="1.000000" stroke="none" 
	d="
M93.490356,221.930969 
	C91.715607,220.865082 89.940857,219.799194 87.991272,218.426819 
	C90.790291,218.782516 94.542679,218.084061 95.696899,222.728027 
	C95.555557,223.000000 95.111107,223.000000 94.538437,222.755859 
	C94.103600,222.318130 93.796982,222.124542 93.490356,221.930969 
z"/>
<path fill="#F9F9F9" opacity="1.000000" stroke="none" 
	d="
M105.740387,220.996429 
	C105.391960,221.504044 104.603493,221.905594 103.907516,222.653564 
	C102.285645,223.000000 100.571281,223.000000 98.428467,223.000000 
	C100.433441,222.296768 102.866890,221.593552 105.740387,220.996429 
z"/>
<path fill="#B6B6B6" opacity="1.000000" stroke="none" 
	d="
M93.566566,222.289398 
	C93.796982,222.124542 94.103600,222.318130 94.205109,222.755859 
	C94.000000,223.000000 93.500000,223.000000 93.250000,223.000000 
	C93.214264,222.882614 93.428520,222.765244 93.566566,222.289398 
z"/>
<path fill="#BBBBBB" opacity="1.000000" stroke="none" 
	d="
M202.054840,104.131821 
	C201.278320,105.090042 200.501801,106.048271 199.382507,107.051414 
	C197.869568,106.800156 196.699402,106.503990 195.401794,106.175568 
	C195.096069,105.013260 194.733276,103.634026 194.359970,102.214752 
	C193.594620,102.263153 192.903976,102.097755 192.667160,102.353142 
	C189.046066,106.258308 185.537918,110.268799 181.892731,114.150795 
	C178.562317,117.697578 175.111450,121.131882 171.690414,124.592773 
	C166.936584,129.401993 162.248657,134.281189 157.367416,138.958115 
	C153.394394,142.764847 149.128418,146.263931 145.086380,150.001144 
	C141.760635,153.076096 138.551956,156.279099 135.328827,159.463257 
	C130.281097,164.449966 125.163979,169.372314 120.268517,174.505295 
	C116.590424,178.361832 113.378258,182.666382 109.658264,186.478317 
	C105.817451,190.414032 101.605469,193.986710 97.570969,197.734467 
	C94.254097,200.815582 91.001099,203.966995 87.634743,206.992615 
	C86.238403,208.247635 84.620667,209.256348 82.744919,210.548218 
	C80.858521,209.515289 79.330803,208.311234 77.803093,207.107193 
	C77.803093,207.107193 77.900543,207.082886 78.006241,206.771332 
	C77.361259,204.692139 76.610573,202.924515 76.222542,201.133484 
	C77.751907,200.778625 79.169533,200.751923 80.027542,200.045517 
	C81.372200,198.938416 82.216187,197.244232 83.488510,196.024292 
	C87.401291,192.272690 91.469757,188.683456 95.382271,184.931580 
	C106.855743,173.929153 118.337433,162.934250 129.709763,151.827744 
	C137.568176,144.153000 145.237885,136.285278 153.017746,128.529694 
	C156.156784,125.400436 159.348938,122.323891 162.545151,119.252739 
	C166.809219,115.155533 171.135086,111.122147 175.371185,106.996407 
	C179.824493,102.659081 184.084183,98.113487 188.690582,93.948807 
	C189.988342,92.775497 192.206940,92.620689 194.007843,92.244522 
	C194.012512,92.490318 194.014969,92.981995 194.009644,93.385422 
	C193.981522,99.342979 196.514954,102.907448 202.054840,104.131821 
z"/>
<path fill="#F9F9F9" opacity="1.000000" stroke="none" 
	d="
M184.662552,207.970810 
	C181.804810,208.228455 178.531586,208.524170 175.252640,208.616837 
	C173.986801,208.652634 172.708176,208.226212 171.434967,208.012756 
	C162.342331,206.488312 154.987076,209.223068 149.346313,217.061203 
	C150.094299,211.643066 155.930786,206.036667 161.687103,206.161194 
	C169.215561,206.324066 176.726379,207.301056 184.662552,207.970810 
z"/>
<path fill="#F9F9F9" opacity="1.000000" stroke="none" 
	d="
M198.546173,108.218246 
	C199.227570,116.192047 199.572845,124.320015 200.014404,132.442734 
	C200.081223,133.672012 200.596024,134.876923 200.860504,136.514252 
	C200.230499,135.598892 199.296494,134.307587 199.115646,132.918243 
	C198.248123,126.253586 197.476181,119.571175 196.933258,112.873749 
	C196.815231,111.417648 197.777008,109.874016 198.546173,108.218246 
z"/>
<path fill="#F9F9F9" opacity="1.000000" stroke="none" 
	d="
M196.859161,186.011169 
	C197.319107,188.320770 197.580933,190.607925 197.344879,192.842484 
	C197.054947,195.586975 196.349167,198.287537 195.418457,201.043991 
	C195.074188,198.253845 194.994644,195.414627 195.239471,192.603653 
	C195.433746,190.372955 196.025177,188.176849 196.859161,186.011169 
z"/>
<path fill="#F9F9F9" opacity="1.000000" stroke="none" 
	d="
M77.890366,207.453323 
	C79.330803,208.311234 80.858521,209.515289 82.677277,210.902374 
	C84.677658,213.226837 86.386986,215.368271 87.989197,217.855835 
	C84.580605,214.734467 81.279121,211.266968 77.890366,207.453323 
z"/>
<path fill="#F9F9F9" opacity="1.000000" stroke="none" 
	d="
M123.795837,213.524536 
	C120.915047,214.582565 117.890114,215.299896 114.489128,216.111740 
	C116.434006,211.810745 118.976448,211.005142 123.795837,213.524536 
z"/>
<path fill="#F9F9F9" opacity="1.000000" stroke="none" 
	d="
M110.799660,218.014771 
	C109.713501,219.074371 108.245888,220.049011 106.438507,221.113937 
	C107.538567,220.112762 108.978394,219.021286 110.799660,218.014771 
z"/>
<path fill="#F9F9F9" opacity="1.000000" stroke="none" 
	d="
M200.687317,182.071533 
	C200.272446,183.014297 199.502625,184.021881 198.394989,185.153702 
	C198.815552,184.230743 199.573944,183.183563 200.687317,182.071533 
z"/>
<path fill="#F9F9F9" opacity="1.000000" stroke="none" 
	d="
M113.812416,215.995087 
	C113.364777,216.755676 112.545204,217.389954 111.408493,218.114120 
	C111.874397,217.425598 112.657440,216.647186 113.812416,215.995087 
z"/>
<path fill="#F9F9F9" opacity="1.000000" stroke="none" 
	d="
M48.078995,47.208763 
	C50.391560,43.329414 52.557446,39.618610 54.896130,36.020103 
	C55.652843,34.855751 56.817757,33.935566 57.873791,32.990692 
	C61.518173,29.729916 65.845940,26.994053 68.718201,23.162325 
	C73.655090,16.576262 79.046410,11.189100 87.146027,8.619160 
	C90.740135,7.478781 93.900360,4.970962 97.630432,3.044457 
	C96.326004,5.356439 94.885681,7.931520 92.921661,10.012285 
	C88.923889,14.247684 84.568352,18.143089 80.501442,22.316208 
	C76.671532,26.246136 73.043243,30.371811 69.288177,34.375664 
	C66.538307,37.307728 63.755512,40.210239 60.936199,43.075558 
	C56.460407,47.624371 51.971863,52.161957 47.397667,56.610687 
	C46.910069,57.084915 45.816246,56.935825 44.576012,57.092468 
	C44.148365,57.109039 44.198112,57.072456 44.422451,56.814621 
	C44.749420,56.329376 44.852047,56.101967 44.954666,55.874554 
	C44.970287,55.449154 44.985909,55.023758 45.274323,54.154877 
	C45.768967,53.473141 45.905037,53.193188 45.955322,52.871529 
	C45.970448,52.446831 45.985569,52.022133 46.273399,51.155212 
	C46.767910,50.475746 46.904999,50.196857 46.957382,49.876316 
	C46.957382,49.876316 46.998768,49.414722 47.272781,49.063194 
	C47.768818,48.473526 47.905048,48.193615 47.955482,47.871937 
	C47.955482,47.871937 47.999416,47.420910 48.078995,47.208763 
z"/>
<path fill="#FDFDFD" opacity="1.000000" stroke="none" 
	d="
M27.349026,81.029060 
	C24.292366,77.323212 17.483938,76.801735 11.819191,79.515785 
	C9.932940,80.419510 7.677243,80.552116 5.232468,80.996689 
	C8.753236,74.002350 15.718525,73.620399 21.658789,75.361702 
	C27.247681,76.999985 31.986986,81.536560 36.728321,84.560875 
	C37.721344,80.459755 38.949432,75.387810 40.521690,70.134285 
	C41.057091,69.962555 41.248322,69.972404 41.726810,69.991135 
	C41.013977,75.410881 40.013885,80.821770 38.987793,86.918747 
	C38.637489,88.076607 38.313183,88.548370 37.646389,88.979706 
	C35.872818,88.281525 34.441730,87.623779 33.010643,86.966034 
	C31.237804,84.999313 29.464964,83.032593 27.349026,81.029060 
z"/>
<path fill="#FDFDFD" opacity="1.000000" stroke="none" 
	d="
M43.984230,58.468292 
	C45.108253,60.647713 46.112419,63.149632 42.541042,64.931335 
	C42.696365,62.921341 43.240356,60.848587 43.984230,58.468292 
z"/>
<path fill="#FDFDFD" opacity="1.000000" stroke="none" 
	d="
M41.699020,65.956207 
	C41.898914,66.185127 41.762749,66.467316 41.348843,66.843689 
	C41.249783,66.667686 41.347073,66.358215 41.699020,65.956207 
z"/>
<path fill="#FDFDFD" opacity="1.000000" stroke="none" 
	d="
M44.739624,55.937492 
	C44.852047,56.101967 44.749420,56.329376 44.403305,56.841125 
	C44.281406,56.750450 44.402992,56.375443 44.739624,55.937492 
z"/>
<path fill="#FDFDFD" opacity="1.000000" stroke="none" 
	d="
M45.699371,52.961021 
	C45.905037,53.193188 45.768967,53.473141 45.352551,53.845303 
	C45.253132,53.669647 45.348278,53.360085 45.699371,52.961021 
z"/>
<path fill="#FDFDFD" opacity="1.000000" stroke="none" 
	d="
M46.700394,49.963314 
	C46.904999,50.196857 46.767910,50.475746 46.351585,50.846195 
	C46.252510,50.669704 46.347958,50.360008 46.700394,49.963314 
z"/>
<path fill="#FDFDFD" opacity="1.000000" stroke="none" 
	d="
M47.699417,47.961197 
	C47.905048,48.193615 47.768818,48.473526 47.352127,48.845482 
	C47.252758,48.669682 47.348057,48.360069 47.699417,47.961197 
z"/>
<path fill="#C8C8C8" opacity="1.000000" stroke="none" 
	d="
M59.024010,201.913574 
	C59.024010,201.913574 58.649788,202.086319 58.028534,201.999100 
	C52.962368,202.219696 48.288879,206.019455 44.189613,201.046692 
	C43.780544,199.315536 43.371479,197.584396 43.294426,195.433228 
	C45.365452,193.638733 47.075211,192.225037 48.851303,190.900269 
	C50.819645,189.432098 53.097946,188.293579 54.806519,186.578415 
	C61.065720,180.294983 67.082375,173.770615 73.306435,167.451309 
	C80.922546,159.718658 88.638756,152.084198 96.345665,144.441544 
	C99.610886,141.203568 102.893364,137.976852 106.290642,134.879532 
	C111.952477,129.717606 118.935074,129.631134 125.963615,130.360901 
	C124.685135,132.436264 123.694046,134.431381 122.162613,135.838318 
	C113.909958,143.420044 105.336433,150.660522 97.241486,158.403366 
	C90.711868,164.648956 84.745415,171.480240 78.446732,177.971741 
	C75.470657,181.038925 72.765755,184.864334 69.109772,186.659149 
	C63.801701,189.265015 62.175941,192.777191 62.833954,198.384232 
	C61.424358,199.727585 60.224182,200.820572 59.024010,201.913574 
z"/>
<path fill="#CECCCC" opacity="1.000000" stroke="none" 
	d="
M126.001617,130.009201 
	C118.935074,129.631134 111.952477,129.717606 106.290642,134.879532 
	C102.893364,137.976852 99.610886,141.203568 96.345665,144.441544 
	C88.638756,152.084198 80.922546,159.718658 73.306435,167.451309 
	C67.082375,173.770615 61.065720,180.294983 54.806519,186.578415 
	C53.097946,188.293579 50.819645,189.432098 48.851303,190.900269 
	C47.075211,192.225037 45.365452,193.638733 43.230953,195.036087 
	C42.537674,194.288834 42.239876,193.518692 42.181778,192.203613 
	C42.344585,190.577362 42.643394,189.249451 42.124207,188.458435 
	C40.131844,185.423019 41.744835,183.593567 43.845165,181.624023 
	C50.682705,175.212265 57.486061,168.762573 64.215736,162.237900 
	C67.522812,159.031570 70.609177,155.598862 73.848358,152.320908 
	C78.002251,148.117249 82.480049,144.198318 86.315460,139.725540 
	C89.949150,135.488022 95.640076,132.577286 96.217056,125.793930 
	C96.588707,125.452682 96.736969,125.315750 97.245102,125.267403 
	C100.402596,125.873466 103.200226,126.390945 106.430969,126.966110 
	C108.143829,127.164345 109.427582,127.454002 110.702667,127.419846 
	C116.450287,127.265884 122.195450,127.020149 128.262009,126.912430 
	C129.385254,127.383118 130.188004,127.748863 130.768921,128.372711 
	C129.031937,129.090271 127.516777,129.549728 126.001617,130.009201 
z"/>
<path fill="#D5D5D5" opacity="1.000000" stroke="none" 
	d="
M13.658970,189.906586 
	C13.122581,189.458145 12.586194,189.009689 12.228686,188.141541 
	C12.604962,187.147903 12.802361,186.573944 13.308900,185.863708 
	C17.724398,181.707031 21.807653,177.662720 25.942345,173.671707 
	C32.675671,167.172379 39.484951,160.751266 46.184006,154.217010 
	C53.567417,147.015213 60.765484,139.621048 68.231049,132.506638 
	C73.067863,127.897339 78.239372,123.639221 83.258759,119.225639 
	C85.958054,120.462341 88.934944,122.989441 89.472221,117.688126 
	C90.393127,118.439232 91.011742,119.060493 91.736725,119.978806 
	C93.523804,121.910187 95.204521,123.544502 96.885239,125.178818 
	C96.736969,125.315750 96.588707,125.452682 95.865501,125.753517 
	C94.024971,124.947708 92.759384,123.977997 91.884384,123.307564 
	C86.933754,127.407776 82.019127,131.137070 77.508392,135.303589 
	C72.306953,140.108109 67.448990,145.285675 62.466949,150.326050 
	C59.285587,153.544662 56.159649,156.817993 52.991032,160.049301 
	C48.474575,164.655136 43.927666,169.231171 39.420769,173.846298 
	C36.228569,177.115158 30.088671,178.470367 32.043198,185.113571 
	C26.631437,187.069778 21.219679,189.025970 15.227106,190.691193 
	C14.317186,190.235672 13.988080,190.071121 13.658970,189.906586 
z"/>
<path fill="#DEDEDE" opacity="1.000000" stroke="none" 
	d="
M26.959221,145.851318 
	C26.958529,145.128876 26.957834,144.406433 27.376476,143.292786 
	C28.872065,140.933578 29.948317,138.965546 31.345562,136.856232 
	C33.272923,135.904114 35.096462,135.354996 36.446194,134.234924 
	C41.069427,130.398315 45.698345,126.537582 49.993572,122.346306 
	C53.574883,118.851669 56.530060,114.720657 60.057671,111.164215 
	C63.569931,107.623238 67.514519,104.514862 71.131416,101.071709 
	C72.310928,99.948853 73.056351,98.369995 74.000153,96.999847 
	C74.000000,97.000000 73.999695,97.000305 74.326279,96.860245 
	C75.792526,96.471794 76.932182,96.223412 78.339462,96.201828 
	C79.452995,98.848534 80.298920,101.268417 80.998451,104.013046 
	C80.320686,104.971626 79.833351,105.649391 79.251358,106.232712 
	C70.681267,114.822380 62.108173,123.409088 53.513996,131.974640 
	C50.260220,135.217575 46.968395,138.422913 43.662346,141.612671 
	C39.893566,145.248871 35.545620,148.442017 32.453979,152.578552 
	C29.368876,156.706329 25.850775,158.798645 20.898520,158.911118 
	C22.590437,155.174088 24.282354,151.437073 26.264309,147.210236 
	C26.744009,146.456192 26.878967,146.166504 26.959221,145.851318 
z"/>
<path fill="#D1D1D1" opacity="1.000000" stroke="none" 
	d="
M32.471630,185.064056 
	C30.088671,178.470367 36.228569,177.115158 39.420769,173.846298 
	C43.927666,169.231171 48.474575,164.655136 52.991032,160.049301 
	C56.159649,156.817993 59.285587,153.544662 62.466949,150.326050 
	C67.448990,145.285675 72.306953,140.108109 77.508392,135.303589 
	C82.019127,131.137070 86.933754,127.407776 91.884384,123.307564 
	C92.759384,123.977997 94.024971,124.947708 95.642105,125.957840 
	C95.640076,132.577286 89.949150,135.488022 86.315460,139.725540 
	C82.480049,144.198318 78.002251,148.117249 73.848358,152.320908 
	C70.609177,155.598862 67.522812,159.031570 64.215736,162.237900 
	C57.486061,168.762573 50.682705,175.212265 43.845165,181.624023 
	C41.744835,183.593567 40.131844,185.423019 42.124207,188.458435 
	C42.643394,189.249451 42.344585,190.577362 42.131443,191.865906 
	C40.798840,189.822754 39.756275,187.572403 38.571251,185.014557 
	C36.788124,185.014557 34.844093,185.014557 32.471630,185.064056 
z"/>
<path fill="#E7E7E7" opacity="1.000000" stroke="none" 
	d="
M33.872204,114.940819 
	C33.900028,114.246674 33.927856,113.552521 33.979679,112.208771 
	C34.016090,111.357338 34.028503,111.155510 34.403839,110.882729 
	C35.182690,109.206062 35.598614,107.600349 36.120316,105.777374 
	C36.416565,105.283134 36.672714,105.096092 37.338936,104.945831 
	C43.048992,100.160515 48.697689,95.707268 53.707153,90.624054 
	C59.683861,84.559380 65.297493,78.208595 74.039574,76.330994 
	C75.350342,77.836105 76.607506,79.000694 76.789474,79.169266 
	C69.802055,86.880196 63.061249,94.457344 56.156254,101.881775 
	C52.598850,105.706795 48.523136,109.063469 45.102516,112.997711 
	C42.324444,116.192924 39.430649,118.461792 34.993271,117.650604 
	C34.613674,116.514008 34.242939,115.727409 33.872204,114.940819 
z"/>
<path fill="#DBDBDB" opacity="1.000000" stroke="none" 
	d="
M20.924072,158.923523 
	C25.850775,158.798645 29.368876,156.706329 32.453979,152.578552 
	C35.545620,148.442017 39.893566,145.248871 43.662346,141.612671 
	C46.968395,138.422913 50.260220,135.217575 53.513996,131.974640 
	C62.108173,123.409088 70.681267,114.822380 79.251358,106.232712 
	C79.833351,105.649391 80.320686,104.971626 81.274147,104.245956 
	C82.185493,105.746689 82.674744,107.339241 82.891693,109.094322 
	C82.412697,109.838387 82.205994,110.419930 81.863487,111.311584 
	C76.990585,116.652466 72.281891,121.710403 67.505096,126.703186 
	C64.891495,129.434952 62.309238,132.226486 59.452614,134.689209 
	C54.833179,138.671692 49.816235,142.202911 45.296509,146.289001 
	C37.460255,153.373444 29.875711,160.736328 22.210110,167.959366 
	C21.865164,167.501877 21.021570,166.383011 20.177977,165.264160 
	C21.047258,170.473160 19.484442,173.270782 13.808270,172.853760 
	C13.613299,172.703995 13.193414,172.448151 13.193413,172.448151 
	C14.873631,169.386749 16.553850,166.325363 18.931248,163.061462 
	C20.060232,161.534500 20.492035,160.210037 20.923840,158.885590 
	C20.923838,158.885590 20.949623,158.935944 20.924072,158.923523 
z"/>
<path fill="#DEDEDE" opacity="1.000000" stroke="none" 
	d="
M32.759201,87.252251 
	C34.441730,87.623779 35.872818,88.281525 37.648983,89.378143 
	C37.984760,90.882202 37.975456,91.947395 37.553249,93.009583 
	C32.842216,94.459961 28.422384,95.640640 24.297230,97.481613 
	C22.230640,98.403893 18.586941,98.185677 18.954315,102.139542 
	C18.382334,101.445427 17.810350,100.751320 17.042572,99.819611 
	C13.614985,102.881409 9.892582,104.602402 5.196989,100.809174 
	C4.476764,100.237961 4.196867,100.108322 3.874993,100.069298 
	C3.874993,100.069298 3.926177,100.046974 3.916760,100.073273 
	C4.962972,99.223221 5.884230,97.996605 7.097493,97.531181 
	C12.346858,95.517426 17.701183,93.778275 22.964252,91.798157 
	C23.756168,91.500221 24.266850,90.454781 24.954525,89.388580 
	C27.503538,88.527512 30.005651,88.032982 32.759201,87.252251 
z"/>
<path fill="#D9D9D9" opacity="1.000000" stroke="none" 
	d="
M19.060856,102.431595 
	C18.586941,98.185677 22.230640,98.403893 24.297230,97.481613 
	C28.422384,95.640640 32.842216,94.459961 37.561089,93.374146 
	C37.649117,94.828163 37.316410,95.914612 36.636265,97.058136 
	C33.531258,98.408569 30.701895,99.571442 28.038841,101.036598 
	C25.907934,102.208969 23.979202,103.748817 21.960745,105.125572 
	C21.029631,104.324928 20.098515,103.524284 19.060856,102.431595 
z"/>
<path fill="#D1D1D1" opacity="1.000000" stroke="none" 
	d="
M22.070232,105.420967 
	C23.979202,103.748817 25.907934,102.208969 28.038841,101.036598 
	C30.701895,99.571442 33.531258,98.408569 36.640488,97.502090 
	C36.992950,100.258980 36.993744,102.628975 36.994537,104.998978 
	C36.672714,105.096092 36.416565,105.283134 35.698196,105.777756 
	C32.453133,106.968056 29.735960,107.940704 26.739338,108.949020 
	C26.272554,108.998085 26.085220,109.011467 25.897888,109.024857 
	C24.658499,107.922028 23.419109,106.819191 22.070232,105.420967 
z"/>
<path fill="#FDFDFD" opacity="1.000000" stroke="none" 
	d="
M33.525848,115.126289 
	C34.242939,115.727409 34.613674,116.514008 34.979099,118.056854 
	C33.657383,124.874580 32.340977,130.936050 31.024569,136.997528 
	C29.948317,138.965546 28.872065,140.933578 27.458641,142.941040 
	C28.247965,138.333160 29.454580,133.703400 30.478140,129.033524 
	C31.475990,124.480949 32.286652,119.887352 33.525848,115.126289 
z"/>
<path fill="#DBDBDB" opacity="1.000000" stroke="none" 
	d="
M12.999759,186.000000 
	C12.802361,186.573944 12.604962,187.147903 12.143974,187.887848 
	C7.804959,183.301270 7.926825,180.950806 12.930080,172.667587 
	C13.193414,172.448151 13.613299,172.703995 13.773984,173.198853 
	C13.462284,175.777603 13.657309,178.527420 12.379692,179.807816 
	C9.652025,182.541412 10.559939,184.163300 12.999759,186.000000 
z"/>
<path fill="#F9F9F9" opacity="1.000000" stroke="none" 
	d="
M44.128906,201.408432 
	C48.288879,206.019455 52.962368,202.219696 57.822868,201.985962 
	C49.419186,207.652313 46.734684,206.575760 44.128906,201.408432 
z"/>
<path fill="#F9F9F9" opacity="1.000000" stroke="none" 
	d="
M59.404114,201.956909 
	C60.224182,200.820572 61.424358,199.727585 63.194801,198.331635 
	C65.176315,197.683853 66.587563,197.339050 68.228577,197.027069 
	C68.458336,197.059906 68.919075,197.116043 69.148140,197.368057 
	C70.583366,198.748215 71.789536,199.876358 72.976349,201.026016 
	C72.957008,201.047546 72.918228,201.090500 72.918228,201.090500 
	C68.273003,197.535889 64.024544,199.709305 59.404114,201.956909 
z"/>
<path fill="#F9F9F9" opacity="1.000000" stroke="none" 
	d="
M75.859894,201.156876 
	C76.610573,202.924515 77.361259,204.692139 77.998810,206.820999 
	C76.311417,205.361404 74.737144,203.540588 73.040550,201.405121 
	C72.918228,201.090500 72.957008,201.047546 73.339966,200.965088 
	C74.454414,200.954773 75.185905,201.026917 75.902695,201.112534 
	C75.887993,201.126007 75.859886,201.156876 75.859894,201.156876 
z"/>
<path fill="#FDFDFD" opacity="1.000000" stroke="none" 
	d="
M26.038872,109.374527 
	C26.085220,109.011467 26.272554,108.998085 27.098959,109.033501 
	C29.838991,109.706100 31.939953,110.329887 34.040916,110.953682 
	C34.028503,111.155510 34.016090,111.357338 33.975349,111.861153 
	C31.357969,111.350159 28.768913,110.537178 26.038872,109.374527 
z"/>
<path fill="#DEDEDE" opacity="1.000000" stroke="none" 
	d="
M20.608627,159.033356 
	C20.492035,160.210037 20.060232,161.534500 19.254284,162.908325 
	C19.351234,161.698853 19.822325,160.439987 20.608627,159.033356 
z"/>
<path fill="#D9D9D9" opacity="1.000000" stroke="none" 
	d="
M13.812021,190.169525 
	C13.988080,190.071121 14.317186,190.235672 14.812023,190.619980 
	C14.640192,190.703995 14.302630,190.568237 13.812021,190.169525 
z"/>
<path fill="#FDFDFD" opacity="1.000000" stroke="none" 
	d="
M26.706778,145.946106 
	C26.878967,146.166504 26.744009,146.456192 26.346533,146.841537 
	C26.243925,146.655411 26.349131,146.348160 26.706778,145.946106 
z"/>
<path fill="#E4E4E4" opacity="1.000000" stroke="none" 
	d="
M3.967882,100.318466 
	C4.196867,100.108322 4.476764,100.237961 4.846146,100.652191 
	C4.671996,100.753342 4.366384,100.660492 3.967882,100.318466 
z"/>
<path fill="#D1D1D1" opacity="1.000000" stroke="none" 
	d="
M194.014969,92.981995 
	C194.014969,92.981995 194.012512,92.490318 194.007385,91.893906 
	C193.673462,89.195694 193.344666,87.093895 193.015869,84.992104 
	C203.024139,86.944412 213.044449,88.839233 223.023926,90.929070 
	C224.144424,91.163719 225.033768,92.502106 226.076660,93.723175 
	C226.123016,94.117699 226.093689,94.057068 225.889374,94.128815 
	C225.369873,94.330322 225.146835,94.552582 225.015945,94.867332 
	C225.015945,94.867332 224.578629,95.001511 224.128967,95.091972 
	C223.384171,95.318008 223.165161,95.531647 223.022308,95.823357 
	C219.561447,94.939575 216.004822,94.320076 212.662613,93.108879 
	C207.878708,91.375214 208.237213,95.623077 206.133194,97.684563 
	C203.400589,91.812263 197.912369,94.374229 194.014969,92.981995 
z"/>
<path fill="#C4C3C3" opacity="1.000000" stroke="none" 
	d="
M194.009644,93.385422 
	C197.912369,94.374229 203.400589,91.812263 205.818832,97.836792 
	C204.976532,100.001945 203.839996,101.942772 202.379150,104.007713 
	C196.514954,102.907448 193.981522,99.342979 194.009644,93.385422 
z"/>
<path fill="#D9D9D9" opacity="1.000000" stroke="none" 
	d="
M223.286530,95.864792 
	C223.165161,95.531647 223.384171,95.318008 223.900909,95.109566 
	C223.931931,95.326538 223.741348,95.616379 223.286530,95.864792 
z"/>
<path fill="#D9D9D9" opacity="1.000000" stroke="none" 
	d="
M225.284637,94.913269 
	C225.146835,94.552582 225.369873,94.330322 225.919724,94.143356 
	C225.954041,94.377174 225.753677,94.668198 225.284637,94.913269 
z"/>
<path fill="#DEDEDE" opacity="1.000000" stroke="none" 
	d="
M163.167191,14.951731 
	C163.744064,15.392666 164.320923,15.833601 164.940048,16.931599 
	C165.018250,18.368395 165.054199,19.148129 164.801300,20.169739 
	C163.548691,24.209547 162.189377,27.193253 158.419418,29.729164 
	C154.484253,32.376217 152.041840,37.242485 148.595169,41.080967 
	C143.759460,38.242596 139.275391,35.461819 134.851929,32.311199 
	C138.464676,29.604691 142.269714,27.569859 145.507065,24.857477 
	C149.878754,21.194695 153.813995,17.011007 158.129852,13.366182 
	C159.937851,14.104929 161.552521,14.528329 163.167191,14.951731 
z"/>
<path fill="#F9F9F9" opacity="1.000000" stroke="none" 
	d="
M196.970154,73.983795 
	C196.389175,74.797707 195.808197,75.611618 195.104462,76.700943 
	C194.981705,76.976364 194.990402,76.992470 194.684341,77.150101 
	C193.895874,78.520020 193.413452,79.732292 192.931030,80.944565 
	C192.931030,80.944565 192.497406,80.942291 192.238495,80.555542 
	C191.347610,77.766388 190.715637,75.363983 190.064835,72.551140 
	C189.049622,68.418732 188.053253,64.696762 187.046677,60.583557 
	C185.735504,57.433250 184.434525,54.674168 183.094238,51.533417 
	C182.059296,48.714336 181.063690,46.276932 180.034790,43.504974 
	C179.008102,41.752140 178.014725,40.333862 176.913574,38.704433 
	C176.608963,38.233486 176.358154,38.045799 176.028610,37.628922 
	C175.709808,36.824535 175.415756,36.321438 175.092590,35.462952 
	C174.354645,33.077053 173.645828,31.046549 172.813324,28.716457 
	C172.115433,27.288469 171.541245,26.160069 171.117233,24.822226 
	C171.352127,24.463287 171.436813,24.313793 171.521515,24.164299 
	C183.316711,38.277451 187.872040,55.680695 193.183456,72.423660 
	C195.141891,69.752022 197.058426,67.137550 199.378525,64.726570 
	C199.520203,66.284569 199.258286,67.639069 198.719376,69.200150 
	C197.951645,70.932419 197.460907,72.458107 196.970154,73.983795 
z"/>
<path fill="#E7E7E7" opacity="1.000000" stroke="none" 
	d="
M197.358856,74.036057 
	C197.460907,72.458107 197.951645,70.932419 199.133148,69.255501 
	C206.828796,69.733849 213.833694,70.363426 220.838593,70.993004 
	C222.168625,72.768448 223.498672,74.543892 224.835602,76.658043 
	C217.145157,76.648033 209.442505,76.380432 201.755478,75.875175 
	C200.386276,75.785179 199.081879,74.709084 197.358856,74.036057 
z"/>
<path fill="#F0F0F0" opacity="1.000000" stroke="none" 
	d="
M220.916412,70.671875 
	C213.833694,70.363426 206.828796,69.733849 199.410126,69.048920 
	C199.258286,67.639069 199.520203,66.284569 199.696884,64.511948 
	C199.611664,64.093826 199.624878,64.115875 199.990768,64.326385 
	C205.942886,64.666702 211.529099,64.796494 217.115326,64.926292 
	C217.115326,64.926292 217.026505,64.972946 217.033234,65.299721 
	C217.739075,66.401718 218.438156,67.176941 219.137238,67.952171 
	C219.756226,68.751701 220.375229,69.551224 220.916412,70.671875 
z"/>
<path fill="#F9F9F9" opacity="1.000000" stroke="none" 
	d="
M216.955933,64.593239 
	C211.529099,64.796494 205.942886,64.666702 199.975327,64.319321 
	C204.394180,59.566200 208.452530,59.603580 216.955933,64.593239 
z"/>
<path fill="#F9F9F9" opacity="1.000000" stroke="none" 
	d="
M165.090164,19.927864 
	C165.054199,19.148129 165.018250,18.368395 165.020386,17.200035 
	C167.075760,19.094931 169.093063,21.378452 171.315948,23.913136 
	C171.436813,24.313793 171.352127,24.463287 170.792419,24.760788 
	C168.574982,23.248484 166.832581,21.588173 165.090164,19.927864 
z"/>
<path fill="#FDFDFD" opacity="1.000000" stroke="none" 
	d="
M163.015686,14.636178 
	C161.552521,14.528329 159.937851,14.104929 158.044907,13.098245 
	C157.502563,12.022290 157.238510,11.529621 156.998093,11.007468 
	C157.021744,10.977984 157.071152,10.920766 157.071152,10.920764 
	C159.002167,12.054050 160.933167,13.187339 163.015686,14.636178 
z"/>
<path fill="#FDFDFD" opacity="1.000000" stroke="none" 
	d="
M154.052475,8.947311 
	C155.003738,9.381333 155.926697,9.844561 156.960403,10.614277 
	C157.071152,10.920766 157.021744,10.977984 156.647293,10.999931 
	C155.504730,10.359848 154.736603,9.697817 153.968491,9.035788 
	C153.968491,9.035789 154.024170,8.976517 154.052475,8.947311 
z"/>
<path fill="#F9F9F9" opacity="1.000000" stroke="none" 
	d="
M219.072937,67.625900 
	C218.438156,67.176941 217.739075,66.401718 217.056641,65.255348 
	C217.718414,65.689346 218.363525,66.494492 219.072937,67.625900 
z"/>
<path fill="#E7E7E7" opacity="1.000000" stroke="none" 
	d="
M225.874954,78.716469 
	C225.535507,78.839020 225.319427,78.618576 225.110443,78.097610 
	C225.333466,78.065331 225.627060,78.257462 225.874954,78.716469 
z"/>
<path fill="#ECECEC" opacity="1.000000" stroke="none" 
	d="
M129.991272,2.422112 
	C133.512405,2.820550 137.026627,3.611327 140.543701,4.966761 
	C136.701050,8.681089 132.703049,11.664929 129.050644,15.024487 
	C124.942345,18.803360 121.180809,22.956617 117.204094,26.881828 
	C112.987625,31.043688 108.518234,34.964180 104.490921,39.298241 
	C101.080521,42.968410 98.143356,47.078327 94.735260,51.115845 
	C93.985191,51.814873 93.496635,52.391697 92.601692,52.941032 
	C86.493790,50.842236 81.526093,52.336239 77.012901,56.038437 
	C76.149368,54.854717 75.285828,53.671001 74.561783,52.678493 
	C90.206360,42.838974 101.324669,28.364586 114.184532,15.781251 
	C116.519356,13.496622 118.451515,10.788861 120.862732,8.599287 
	C121.912682,7.645846 123.713867,7.057499 125.155075,7.091844 
	C128.304489,7.166899 129.788223,5.839108 129.991272,2.422112 
z"/>
<path fill="#060808" opacity="1.000000" stroke="none" 
	d="
M76.887596,56.360352 
	C81.526093,52.336239 86.493790,50.842236 92.796539,53.217155 
	C102.040382,59.131664 102.987999,66.899879 95.642349,75.084427 
	C90.847572,76.186623 86.423630,77.165344 81.674232,78.070404 
	C79.742920,76.947853 78.137054,75.898956 76.375328,74.514961 
	C75.161240,71.120331 74.103020,68.060806 73.044792,65.001274 
	C74.283958,62.228275 75.523125,59.455273 76.887596,56.360352 
z"/>
<path fill="#ECECEC" opacity="1.000000" stroke="none" 
	d="
M72.667297,64.995712 
	C74.103020,68.060806 75.161240,71.120331 76.013000,74.557510 
	C75.199684,75.286934 74.592827,75.638702 73.985962,75.990479 
	C65.297493,78.208595 59.683861,84.559380 53.707153,90.624054 
	C48.697689,95.707268 43.048992,100.160515 37.338936,104.945831 
	C36.993744,102.628975 36.992950,100.258980 36.987930,97.445023 
	C37.316410,95.914612 37.649117,94.828163 37.973984,93.377151 
	C37.975456,91.947395 37.984760,90.882202 37.991470,89.418571 
	C38.313183,88.548370 38.637489,88.076607 38.992012,87.306488 
	C41.610596,85.909653 44.828888,85.441719 46.673565,83.598839 
	C53.164070,77.114632 59.132477,70.110336 65.460220,63.456718 
	C66.075531,62.809723 67.869125,62.949429 68.998611,63.217541 
	C70.169930,63.495586 71.198700,64.374199 72.667297,64.995712 
z"/>
<path fill="#C0C0C0" opacity="1.000000" stroke="none" 
	d="
M190.083649,72.961578 
	C190.715637,75.363983 191.347610,77.766388 192.021713,80.551941 
	C192.354324,82.055756 192.644806,83.176414 192.975586,84.644592 
	C193.344666,87.093895 193.673462,89.195694 194.002716,91.648102 
	C192.206940,92.620689 189.988342,92.775497 188.690582,93.948807 
	C184.084183,98.113487 179.824493,102.659081 175.371185,106.996407 
	C171.135086,111.122147 166.809219,115.155533 162.545151,119.252739 
	C159.348938,122.323891 156.156784,125.400436 153.017746,128.529694 
	C145.237885,136.285278 137.568176,144.153000 129.709763,151.827744 
	C118.337433,162.934250 106.855743,173.929153 95.382271,184.931580 
	C91.469757,188.683456 87.401291,192.272690 83.488510,196.024292 
	C82.216187,197.244232 81.372200,198.938416 80.027542,200.045517 
	C79.169533,200.751923 77.751907,200.778625 76.222534,201.133484 
	C75.859886,201.156876 75.887993,201.126007 75.930908,200.724426 
	C75.982544,199.548157 75.991272,198.773468 75.957748,197.678345 
	C75.275742,196.906204 74.635994,196.454498 73.998077,196.001404 
	C73.999916,196.000000 73.996948,196.003922 73.998322,195.618820 
	C74.998909,193.491394 75.678963,191.424850 77.057465,190.067810 
	C81.123238,186.065277 85.588852,182.470032 89.673103,178.484894 
	C97.371262,170.973602 104.916626,163.305588 112.516159,155.693390 
	C115.977310,152.226486 119.444305,148.764633 122.857956,145.251251 
	C126.904716,141.086243 130.900726,136.871841 134.910873,132.671341 
	C136.732086,130.763672 138.534393,128.837982 140.628632,126.620453 
	C141.075043,126.791313 142.210419,127.225891 143.345795,127.660469 
	C143.711868,127.316322 144.077927,126.972176 144.444000,126.628029 
	C143.172348,125.034760 141.900696,123.441490 140.849274,121.575157 
	C142.424484,118.917107 143.779434,116.532112 145.439270,114.000122 
	C146.837830,111.901665 147.931503,109.950211 149.352859,107.968979 
	C150.786087,107.756271 152.485092,107.027168 152.900909,107.478989 
	C155.612167,110.425034 156.243240,108.314087 157.141876,106.071747 
	C157.799927,104.429726 158.423340,102.568459 159.634735,101.396973 
	C162.049057,99.062225 164.939072,97.229218 167.487381,95.021362 
	C174.964584,88.543053 182.550903,82.159531 187.751450,73.510963 
	C188.038773,73.033150 189.284195,73.131447 190.083649,72.961578 
z"/>
<path fill="#E3E3E2" opacity="1.000000" stroke="none" 
	d="
M193.286209,80.957336 
	C193.413452,79.732292 193.895874,78.520020 194.677429,77.145599 
	C194.593674,78.333160 197.533401,80.795654 193.286209,80.957336 
z"/>
<path fill="#E7E7E7" opacity="1.000000" stroke="none" 
	d="
M94.996773,50.993645 
	C98.143356,47.078327 101.080521,42.968410 104.490921,39.298241 
	C108.518234,34.964180 112.987625,31.043688 117.204094,26.881828 
	C121.180809,22.956617 124.942345,18.803360 129.050644,15.024487 
	C132.703049,11.664929 136.701050,8.681089 140.776733,5.259103 
	C142.770721,5.627328 144.534500,6.267870 146.648804,7.339146 
	C146.761688,8.869246 146.904587,10.394522 146.226242,11.000597 
	C140.806702,15.842648 135.181396,20.453627 129.729187,25.260248 
	C127.563896,27.169165 124.138153,28.677704 125.923729,32.799496 
	C115.302505,36.174347 109.468170,43.533894 108.550613,54.044212 
	C104.357567,55.823399 106.188576,58.768047 107.720345,60.216438 
	C110.087128,62.454388 108.280144,62.962318 106.749405,64.004852 
	C106.329750,64.008736 106.161903,64.011765 105.956635,63.657772 
	C102.022415,59.425564 101.120110,52.892799 94.996773,50.993645 
M103.412888,56.481865 
	C103.412888,56.481865 103.523544,56.415623 103.412888,56.481865 
z"/>
<path fill="#E4E4E4" opacity="1.000000" stroke="none" 
	d="
M126.241600,32.674168 
	C124.138153,28.677704 127.563896,27.169165 129.729187,25.260248 
	C135.181396,20.453627 140.806702,15.842648 146.226242,11.000597 
	C146.904587,10.394522 146.761688,8.869246 146.999969,7.386484 
	C149.075699,7.677396 151.150787,8.351706 153.597183,9.030900 
	C154.736603,9.697817 155.504730,10.359848 156.623642,11.029415 
	C157.238510,11.529621 157.502563,12.022290 157.851578,12.782898 
	C153.813995,17.011007 149.878754,21.194695 145.507065,24.857477 
	C142.269714,27.569859 138.464676,29.604691 134.419403,32.316189 
	C131.364700,32.685402 128.803146,32.679783 126.241600,32.674168 
z"/>
<path fill="#C4C3C3" opacity="1.000000" stroke="none" 
	d="
M140.629044,121.848221 
	C141.900696,123.441490 143.172348,125.034760 144.444000,126.628029 
	C144.077927,126.972176 143.711868,127.316322 143.345795,127.660469 
	C142.210419,127.225891 141.075043,126.791313 140.628632,126.620453 
	C138.534393,128.837982 136.732086,130.763672 134.910873,132.671341 
	C130.900726,136.871841 126.904716,141.086243 122.857956,145.251251 
	C119.444305,148.764633 115.977310,152.226486 112.516159,155.693390 
	C104.916626,163.305588 97.371262,170.973602 89.673103,178.484894 
	C85.588852,182.470032 81.123238,186.065277 77.057465,190.067810 
	C75.678963,191.424850 74.998909,193.491394 73.623230,195.618698 
	C72.496429,196.003906 71.746078,196.004135 70.991653,195.658539 
	C70.322777,194.726013 69.657982,194.139297 68.993179,193.552582 
	C68.661720,194.699799 68.330261,195.847031 67.998810,196.994247 
	C66.587563,197.339050 65.176315,197.683853 63.404221,198.081268 
	C62.175941,192.777191 63.801701,189.265015 69.109772,186.659149 
	C72.765755,184.864334 75.470657,181.038925 78.446732,177.971741 
	C84.745415,171.480240 90.711868,164.648956 97.241486,158.403366 
	C105.336433,150.660522 113.909958,143.420044 122.162613,135.838318 
	C123.694046,134.431381 124.685135,132.436264 125.963615,130.360901 
	C127.516777,129.549728 129.031937,129.090271 131.051910,128.150620 
	C134.580811,125.729698 137.604919,123.788956 140.629044,121.848221 
z"/>
<path fill="#040404" opacity="1.000000" stroke="none" 
	d="
M149.025162,107.998756 
	C147.931503,109.950211 146.837830,111.901665 145.068512,113.961014 
	C141.542313,116.720680 138.839859,119.560089 135.793915,121.964333 
	C133.396118,123.857010 130.574738,125.213081 127.941498,126.807495 
	C122.195450,127.020149 116.450287,127.265884 110.702667,127.419846 
	C109.427582,127.454002 108.143829,127.164345 106.349640,126.623901 
	C101.100258,124.043266 96.365311,121.862511 91.630356,119.681755 
	C91.011742,119.060493 90.393127,118.439232 89.466385,117.505089 
	C89.049492,116.937225 88.856522,116.807831 88.443985,116.475266 
	C86.593742,113.741600 84.878868,111.336700 83.163994,108.931801 
	C82.674744,107.339241 82.185493,105.746689 81.420547,103.921219 
	C80.298920,101.268417 79.452995,98.848534 78.253128,95.871620 
	C77.159210,93.439774 77.159210,93.439774 81.321838,94.077042 
	C88.430649,96.168404 95.215294,98.080490 102.325066,100.236542 
	C108.130066,101.921356 113.599602,102.738342 119.418488,100.274223 
	C125.214874,98.194260 130.606506,96.049583 136.356262,93.974426 
	C142.114304,91.112976 147.514221,88.182014 152.905365,85.658440 
	C151.606125,93.376801 150.315643,100.687782 149.025162,107.998756 
z"/>
<path fill="#4D7072" opacity="1.000000" stroke="none" 
	d="
M128.262009,126.912430 
	C130.574738,125.213081 133.396118,123.857010 135.793915,121.964333 
	C138.839859,119.560089 141.542313,116.720680 144.763641,114.108017 
	C143.779434,116.532112 142.424484,118.917107 140.849274,121.575150 
	C137.604919,123.788956 134.580811,125.729698 131.273712,127.892517 
	C130.188004,127.748863 129.385254,127.383118 128.262009,126.912430 
z"/>
<path fill="#4D7072" opacity="1.000000" stroke="none" 
	d="
M91.736725,119.978806 
	C96.365311,121.862511 101.100258,124.043266 105.916534,126.566223 
	C103.200226,126.390945 100.402596,125.873466 97.245102,125.267403 
	C95.204521,123.544502 93.523804,121.910187 91.736725,119.978806 
z"/>
<path fill="#D9D9D9" opacity="1.000000" stroke="none" 
	d="
M88.579346,116.804024 
	C88.856522,116.807831 89.049492,116.937225 89.164093,117.375244 
	C88.934944,122.989441 85.958054,120.462341 83.258759,119.225639 
	C78.239372,123.639221 73.067863,127.897339 68.231049,132.506638 
	C60.765484,139.621048 53.567417,147.015213 46.184006,154.217010 
	C39.484951,160.751266 32.675671,167.172379 25.942345,173.671707 
	C21.807653,177.662720 17.724398,181.707031 13.308900,185.863708 
	C10.559939,184.163300 9.652025,182.541412 12.379692,179.807816 
	C13.657309,178.527420 13.462284,175.777603 13.968954,173.348618 
	C19.484442,173.270782 21.047258,170.473160 20.177977,165.264160 
	C21.021570,166.383011 21.865164,167.501877 22.210110,167.959366 
	C29.875711,160.736328 37.460255,153.373444 45.296509,146.289001 
	C49.816235,142.202911 54.833179,138.671692 59.452614,134.689209 
	C62.309238,132.226486 64.891495,129.434952 67.505096,126.703186 
	C72.281891,121.710403 76.990585,116.652466 82.154259,111.535843 
	C84.295792,113.553474 83.515953,118.452042 88.579346,116.804024 
z"/>
<path fill="#E3E3E2" opacity="1.000000" stroke="none" 
	d="
M80.997665,93.897781 
	C77.159210,93.439774 77.159210,93.439774 77.985519,95.644806 
	C76.932182,96.223412 75.792526,96.471794 74.272026,96.722549 
	C73.806099,96.675789 73.721016,96.626656 73.635925,96.577522 
	C73.757385,96.718246 73.878845,96.858971 74.000305,96.999695 
	C73.056351,98.369995 72.310928,99.948853 71.131416,101.071709 
	C67.514519,104.514862 63.569931,107.623238 60.057671,111.164215 
	C56.530060,114.720657 53.574883,118.851669 49.993572,122.346306 
	C45.698345,126.537582 41.069427,130.398315 36.446194,134.234924 
	C35.096462,135.354996 33.272923,135.904114 31.345562,136.856232 
	C32.340977,130.936050 33.657383,124.874580 34.987961,118.406860 
	C39.430649,118.461792 42.324444,116.192924 45.102516,112.997711 
	C48.523136,109.063469 52.598850,105.706795 56.156254,101.881775 
	C63.061249,94.457344 69.802055,86.880196 76.789474,79.169266 
	C76.607506,79.000694 75.350342,77.836105 74.039581,76.331001 
	C74.592827,75.638702 75.199684,75.286934 76.168869,74.892609 
	C78.137054,75.898956 79.742920,76.947853 81.818604,78.385643 
	C83.511284,79.141098 84.734138,79.507660 86.140549,80.160858 
	C87.549812,81.631454 88.775513,82.815422 89.806152,84.271950 
	C88.097954,85.797348 86.764580,87.482758 85.030304,88.203476 
	C82.306580,89.335403 80.428459,90.629494 80.997665,93.897781 
z"/>
<path fill="#CBCCCC" opacity="1.000000" stroke="none" 
	d="
M34.403839,110.882729 
	C31.939953,110.329887 29.838991,109.706100 27.378407,108.997826 
	C29.735960,107.940704 32.453133,106.968056 35.592422,105.995026 
	C35.598614,107.600349 35.182690,109.206062 34.403839,110.882729 
z"/>
<path fill="#D5D5D5" opacity="1.000000" stroke="none" 
	d="
M88.443985,116.475266 
	C83.515953,118.452042 84.295792,113.553474 82.290070,111.225731 
	C82.205994,110.419930 82.412697,109.838387 82.891693,109.094322 
	C84.878868,111.336700 86.593742,113.741600 88.443985,116.475266 
z"/>
<path fill="#BBBBBB" opacity="1.000000" stroke="none" 
	d="
M70.995728,196.004364 
	C71.746078,196.004135 72.496429,196.003906 73.621864,196.003799 
	C73.996948,196.003922 73.999916,196.000000 74.040237,196.321777 
	C74.720375,197.095306 75.360191,197.547043 76.000000,197.998779 
	C75.991272,198.773468 75.982544,199.548157 75.945602,200.710953 
	C75.185905,201.026917 74.454414,200.954773 73.359314,200.943573 
	C71.789536,199.876358 70.583366,198.748215 69.323044,197.106079 
	C69.844498,196.396194 70.420113,196.200287 70.995728,196.004364 
z"/>
<path fill="#C0C0C0" opacity="1.000000" stroke="none" 
	d="
M70.991653,195.658539 
	C70.420113,196.200287 69.844498,196.396194 69.093979,196.854065 
	C68.919075,197.116043 68.458336,197.059906 68.228569,197.027069 
	C68.330261,195.847031 68.661720,194.699799 68.993179,193.552582 
	C69.657982,194.139297 70.322777,194.726013 70.991653,195.658539 
z"/>
<path fill="#020202" opacity="1.000000" stroke="none" 
	d="
M125.923729,32.799496 
	C128.803146,32.679783 131.364700,32.685402 134.358795,32.686028 
	C139.275391,35.461819 143.759460,38.242596 148.626312,41.297241 
	C149.075134,41.897770 149.272064,42.091103 149.640030,42.583191 
	C149.673553,49.252567 149.666962,55.489857 149.731247,61.773888 
	C149.802124,61.820629 149.722168,61.670811 149.511398,61.721481 
	C149.300629,61.772156 148.995941,62.080677 148.716003,62.018425 
	C145.892532,64.332253 143.610504,67.103477 140.748123,68.997787 
	C135.627853,72.386375 129.830048,72.501175 123.604683,71.053970 
	C121.491043,70.394691 119.743118,69.776131 117.672340,69.009094 
	C115.134865,65.891502 112.920242,62.922386 110.763596,59.728813 
	C110.821579,59.504360 110.738724,59.048176 110.800011,58.699474 
	C110.207619,56.899719 109.553940,55.448666 108.900253,53.997612 
	C109.468170,43.533894 115.302505,36.174347 125.923729,32.799496 
z"/>
<path fill="#DBDBDB" opacity="1.000000" stroke="none" 
	d="
M149.599899,42.151108 
	C149.272064,42.091103 149.075134,41.897770 148.977966,41.354836 
	C152.041840,37.242485 154.484253,32.376217 158.419418,29.729164 
	C162.189377,27.193253 163.548691,24.209547 164.801300,20.169739 
	C166.832581,21.588173 168.574982,23.248484 170.642212,24.970232 
	C171.541245,26.160069 172.115433,27.288469 172.456528,28.757648 
	C168.704300,31.732019 164.342422,33.752563 161.871811,37.148872 
	C158.516357,41.761559 155.097351,43.889309 149.599899,42.151108 
z"/>
<path fill="#D1D1D1" opacity="1.000000" stroke="none" 
	d="
M135.998138,93.904907 
	C130.606506,96.049583 125.214874,98.194260 119.372688,99.920273 
	C117.663017,99.318756 116.318718,99.354691 115.163544,98.904884 
	C113.119255,98.108864 111.189995,97.017441 109.212593,96.049652 
	C110.440468,94.711227 111.711349,93.409416 112.888031,92.027405 
	C116.222786,88.110725 119.519005,84.161232 122.830391,80.224663 
	C122.781693,79.097328 123.879372,79.308731 124.717201,78.936012 
	C129.121521,76.976700 133.460144,74.869728 137.847473,72.827782 
	C137.873383,72.841537 137.877716,72.900040 138.193253,72.913269 
	C139.012009,72.610641 139.515213,72.294777 140.241302,71.758591 
	C141.856445,70.649658 143.248703,69.761047 145.060440,68.910873 
	C146.319946,68.969925 147.159973,68.990547 148.005234,69.377014 
	C148.884583,74.590836 150.853592,72.741837 154.096725,69.845764 
	C151.350449,69.463989 149.680832,69.231880 148.035156,68.676804 
	C148.040283,67.235535 148.021469,66.117241 148.102371,64.722176 
	C148.518021,63.949936 148.833923,63.454456 149.345734,62.799786 
	C149.601822,62.317329 149.661987,61.994072 149.722168,61.670811 
	C149.722168,61.670811 149.802124,61.820629 150.095245,61.814529 
	C152.743378,59.298336 155.138901,56.824753 157.443085,54.268806 
	C160.262894,51.140881 162.608017,47.419964 165.893799,44.923267 
	C169.222000,42.394333 172.288422,40.439400 170.290039,36.077564 
	C172.096848,35.980629 173.609283,35.899487 175.121719,35.818344 
	C175.415756,36.321438 175.709808,36.824535 175.905548,37.911713 
	C175.805679,39.184990 175.804123,39.874187 175.802567,40.563377 
	C176.208817,40.014111 176.615082,39.464848 177.021347,38.915585 
	C178.014725,40.333862 179.008102,41.752140 179.973679,43.905190 
	C179.057632,47.036747 178.822998,50.104305 177.169373,51.715576 
	C169.527573,59.161579 161.367188,66.072380 153.637802,73.432449 
	C148.089554,78.715591 142.871674,84.352455 137.648056,89.963387 
	C136.737457,90.941505 136.530228,92.574425 135.998138,93.904907 
M131.609299,90.407990 
	C131.965759,90.316650 132.322235,90.225311 132.678696,90.133972 
	C132.357315,90.086792 132.035919,90.039612 131.609299,90.407990 
z"/>
<path fill="#C6C6C7" opacity="1.000000" stroke="none" 
	d="
M149.352859,107.968979 
	C150.315643,100.687782 151.606125,93.376801 152.927689,85.345512 
	C152.972305,84.416496 152.985855,84.207787 153.355042,84.058861 
	C157.021118,87.141228 160.042480,85.893959 162.777878,83.317146 
	C165.243790,80.994232 167.541641,78.487419 169.842377,75.995941 
	C173.356857,72.190094 176.621277,68.128319 180.371918,64.576515 
	C182.146103,62.896378 184.801010,62.146271 187.056885,60.974785 
	C188.053253,64.696762 189.049622,68.418732 190.064819,72.551140 
	C189.284195,73.131447 188.038773,73.033150 187.751450,73.510963 
	C182.550903,82.159531 174.964584,88.543053 167.487381,95.021362 
	C164.939072,97.229218 162.049057,99.062225 159.634735,101.396973 
	C158.423340,102.568459 157.799927,104.429726 157.141876,106.071747 
	C156.243240,108.314087 155.612167,110.425034 152.900909,107.478989 
	C152.485092,107.027168 150.786087,107.756271 149.352859,107.968979 
z"/>
<path fill="#CBCCCC" opacity="1.000000" stroke="none" 
	d="
M187.046677,60.583561 
	C184.801010,62.146271 182.146103,62.896378 180.371918,64.576515 
	C176.621277,68.128319 173.356857,72.190094 169.842377,75.995941 
	C167.541641,78.487419 165.243790,80.994232 162.777878,83.317146 
	C160.042480,85.893959 157.021118,87.141228 153.234146,83.763519 
	C153.028442,82.429878 153.002213,81.164650 153.621780,80.522667 
	C156.252426,77.796814 159.099136,75.281120 161.822098,72.642418 
	C168.938477,65.746262 176.031326,58.825840 183.133545,51.915092 
	C184.434525,54.674168 185.735504,57.433250 187.046677,60.583561 
z"/>
<path fill="#CECECE" opacity="1.000000" stroke="none" 
	d="
M183.094238,51.533417 
	C176.031326,58.825840 168.938477,65.746262 161.822098,72.642418 
	C159.099136,75.281120 156.252426,77.796814 153.621780,80.522667 
	C153.002213,81.164650 153.028442,82.429878 152.878494,83.703735 
	C152.985855,84.207787 152.972305,84.416496 152.936462,84.938126 
	C147.514221,88.182014 142.114304,91.112976 136.356262,93.974426 
	C136.530228,92.574425 136.737457,90.941505 137.648056,89.963387 
	C142.871674,84.352455 148.089554,78.715591 153.637802,73.432449 
	C161.367188,66.072380 169.527573,59.161579 177.169373,51.715576 
	C178.822998,50.104305 179.057632,47.036747 180.006958,44.239746 
	C181.063690,46.276932 182.059296,48.714336 183.094238,51.533417 
z"/>
<path fill="#D5D5D5" opacity="1.000000" stroke="none" 
	d="
M175.092590,35.462952 
	C173.609283,35.899487 172.096848,35.980629 170.290039,36.077564 
	C172.288422,40.439400 169.222000,42.394333 165.893799,44.923267 
	C162.608017,47.419964 160.262894,51.140881 157.443085,54.268806 
	C155.138901,56.824753 152.743378,59.298336 150.024353,61.767788 
	C149.666962,55.489857 149.673553,49.252567 149.640030,42.583191 
	C155.097351,43.889309 158.516357,41.761559 161.871811,37.148872 
	C164.342422,33.752563 168.704300,31.732019 172.580215,29.057238 
	C173.645828,31.046549 174.354645,33.077053 175.092590,35.462952 
z"/>
<path fill="#D5D5D5" opacity="1.000000" stroke="none" 
	d="
M176.913574,38.704430 
	C176.615082,39.464848 176.208817,40.014111 175.802567,40.563377 
	C175.804123,39.874187 175.805679,39.184990 175.930313,38.213005 
	C176.358154,38.045799 176.608963,38.233486 176.913574,38.704430 
z"/>
<path fill="#E4DFDD" opacity="1.000000" stroke="none" 
	d="
M94.735260,51.115849 
	C101.120110,52.892799 102.022415,59.425564 105.743080,63.949257 
	C103.269836,69.648872 100.972717,74.699989 98.606956,79.902039 
	C96.898308,79.322380 95.669579,78.905540 94.565277,78.183113 
	C95.130852,76.905334 95.572021,75.933136 96.013184,74.960938 
	C102.987999,66.899879 102.040382,59.131664 93.202927,53.244644 
	C93.496635,52.391697 93.985191,51.814873 94.735260,51.115849 
z"/>
<path fill="#4D7072" opacity="1.000000" stroke="none" 
	d="
M95.642349,75.084427 
	C95.572021,75.933136 95.130852,76.905334 94.558975,78.203751 
	C94.428268,78.529968 94.399849,78.562057 94.040146,78.567490 
	C91.105957,79.006691 88.531479,79.440460 85.956993,79.874222 
	C84.734138,79.507660 83.511284,79.141098 82.144058,78.459297 
	C86.423630,77.165344 90.847572,76.186623 95.642349,75.084427 
z"/>
<path fill="#C4C3C3" opacity="1.000000" stroke="none" 
	d="
M75.957741,197.678345 
	C75.360191,197.547043 74.720375,197.095306 74.038406,196.323181 
	C74.635994,196.454498 75.275742,196.906204 75.957741,197.678345 
z"/>
<path fill="#DDDBDB" opacity="1.000000" stroke="none" 
	d="
M94.434563,78.509331 
	C95.669579,78.905540 96.898308,79.322380 98.606956,79.902039 
	C100.972717,74.699989 103.269836,69.648872 105.780502,64.306274 
	C106.161903,64.011765 106.329750,64.008736 106.748779,64.416824 
	C106.252014,69.741737 109.380424,69.177917 112.307549,68.360916 
	C112.608139,68.969917 112.923615,69.301537 112.862846,69.535385 
	C112.436577,71.175667 111.932686,72.795784 111.030136,75.860161 
	C113.709427,74.129097 115.350792,73.068634 117.314102,72.178177 
	C119.603638,74.594337 119.472389,76.326889 117.171745,78.601021 
	C111.343956,84.361656 105.869926,90.480194 100.263023,96.446014 
	C100.888733,97.723640 101.444336,98.858109 101.999939,99.992577 
	C95.215294,98.080490 88.430649,96.168404 81.321838,94.077042 
	C80.428459,90.629494 82.306580,89.335403 85.030304,88.203476 
	C86.764580,87.482758 88.097954,85.797348 90.185562,84.266953 
	C93.891251,83.466537 95.672195,82.038139 94.399849,78.562057 
	C94.399849,78.562057 94.428268,78.529968 94.434563,78.509331 
z"/>
<path fill="#E4DFDD" opacity="1.000000" stroke="none" 
	d="
M116.992157,72.008163 
	C115.350792,73.068634 113.709427,74.129097 111.030136,75.860161 
	C111.932686,72.795784 112.436577,71.175667 112.862846,69.535385 
	C112.923615,69.301537 112.608139,68.969917 112.307549,68.360916 
	C109.380424,69.177917 106.252014,69.741737 107.000595,64.415977 
	C108.280144,62.962318 110.087128,62.454388 107.720345,60.216438 
	C106.188576,58.768047 104.357567,55.823399 108.550613,54.044212 
	C109.553940,55.448666 110.207619,56.899719 110.682892,58.788521 
	C110.339493,59.513195 110.406532,59.755527 110.705620,59.953270 
	C112.920242,62.922386 115.134865,65.891502 117.645035,69.270996 
	C117.624435,70.456963 117.308304,71.232559 116.992157,72.008163 
z"/>
<path fill="#E4DFDD" opacity="1.000000" stroke="none" 
	d="
M103.468216,56.448746 
	C103.523544,56.415623 103.412888,56.481865 103.468216,56.448746 
z"/>
<path fill="#DCD7D6" opacity="1.000000" stroke="none" 
	d="
M117.314102,72.178177 
	C117.308304,71.232559 117.624435,70.456963 117.967880,69.419464 
	C119.743118,69.776131 121.491043,70.394691 123.595924,71.351730 
	C127.409538,74.391045 129.626770,74.570709 137.821579,72.814026 
	C133.460144,74.869728 129.121521,76.976700 124.717201,78.936012 
	C123.879372,79.308731 122.781693,79.097328 122.830391,80.224663 
	C119.519005,84.161232 116.222786,88.110725 112.888031,92.027405 
	C111.711349,93.409416 110.440468,94.711227 109.212593,96.049652 
	C111.189995,97.017441 113.119255,98.108864 115.163544,98.904884 
	C116.318718,99.354691 117.663017,99.318756 118.967934,99.855568 
	C113.599602,102.738342 108.130066,101.921356 102.325066,100.236542 
	C101.444336,98.858109 100.888733,97.723640 100.263023,96.446014 
	C105.869926,90.480194 111.343956,84.361656 117.171745,78.601021 
	C119.472389,76.326889 119.603638,74.594337 117.314102,72.178177 
z"/>
<path fill="#E4DFDD" opacity="1.000000" stroke="none" 
	d="
M94.040146,78.567490 
	C95.672195,82.038139 93.891251,83.466537 90.380630,83.994385 
	C88.775513,82.815422 87.549812,81.631454 86.140549,80.160858 
	C88.531479,79.440460 91.105957,79.006691 94.040146,78.567490 
z"/>
<path fill="#DEDEDE" opacity="1.000000" stroke="none" 
	d="
M74.000153,96.999847 
	C73.878845,96.858971 73.757385,96.718246 73.635925,96.577522 
	C73.721016,96.626656 73.806099,96.675789 73.945442,96.862610 
	C73.999695,97.000305 74.000000,97.000000 74.000153,96.999847 
z"/>
<path fill="#4D7072" opacity="1.000000" stroke="none" 
	d="
M137.847473,72.827782 
	C129.626770,74.570709 127.409538,74.391045 123.961639,71.392441 
	C129.830048,72.501175 135.627853,72.386375 140.748123,68.997787 
	C143.610504,67.103477 145.892532,64.332253 148.767593,62.235397 
	C149.099121,62.514626 149.149841,62.958981 149.149841,62.958981 
	C148.833923,63.454456 148.518021,63.949936 147.808502,64.860550 
	C146.490250,66.474609 145.565598,67.673523 144.640961,68.872437 
	C143.248703,69.761047 141.856445,70.649658 139.926331,71.770676 
	C138.884872,72.302078 138.381302,72.601059 137.877716,72.900040 
	C137.877716,72.900040 137.873383,72.841537 137.847473,72.827782 
z"/>
<path fill="#D5D5D5" opacity="1.000000" stroke="none" 
	d="
M149.345734,62.799786 
	C149.149841,62.958981 149.099121,62.514626 149.047531,62.297653 
	C148.995941,62.080677 149.300629,61.772156 149.511398,61.721481 
	C149.661987,61.994072 149.601822,62.317329 149.345734,62.799786 
z"/>
<path fill="#E7E7E7" opacity="1.000000" stroke="none" 
	d="
M110.763596,59.728813 
	C110.406532,59.755527 110.339493,59.513195 110.621613,59.137222 
	C110.738724,59.048176 110.821579,59.504360 110.763596,59.728813 
z"/>
<path fill="#CECECE" opacity="1.000000" stroke="none" 
	d="
M148.011215,68.999779 
	C149.680832,69.231880 151.350449,69.463989 154.096725,69.845764 
	C150.853592,72.741837 148.884583,74.590836 148.005371,69.371536 
	C148.000290,69.000221 148.011215,68.999779 148.011215,68.999779 
z"/>
<path fill="#D5D5D5" opacity="1.000000" stroke="none" 
	d="
M145.060440,68.910873 
	C145.565598,67.673523 146.490250,66.474609 147.708771,65.137314 
	C148.021469,66.117241 148.040283,67.235535 148.035156,68.676804 
	C148.011215,68.999779 148.000290,69.000221 148.000153,69.005699 
	C147.159973,68.990547 146.319946,68.969925 145.060440,68.910873 
z"/>
<path fill="#CECECE" opacity="1.000000" stroke="none" 
	d="
M131.661926,90.200211 
	C132.035919,90.039612 132.357315,90.086792 132.678696,90.133972 
	C132.322235,90.225311 131.965759,90.316650 131.661926,90.200211 
z"/>
<path fill="#DCD7D6" opacity="1.000000" stroke="none" 
	d="
M138.193253,72.913269 
	C138.381302,72.601059 138.884872,72.302078 139.703445,71.991005 
	C139.515213,72.294777 139.012009,72.610641 138.193253,72.913269 
z"/>
</svg>